<svg width="100" height="100" viewBox="0 0 100 100" fill="none" xmlns="http://www.w3.org/2000/svg">
<g clip-path="url(#clip0)">
<rect width="100" height="100" rx="25" fill="white"/>
<rect width="100" height="100" rx="5" fill="#FFE9C5"/>
<g filter="url(#filter0_dd)">
<path d="M33.7 85C33.7 81.7333 34.1 78.7333 34.9 76C35.7 73.2667 36.6 71.2 37.6 69.8C38.1333 69.0667 38.9333 68.1 40 66.9C41.1333 65.6333 42.6 64.1 44.4 62.3C47.8667 58.8333 49.7667 56.2 50.1 54.4V51.1H49.7C49.6333 51.6333 49.1333 52.4 48.2 53.4C47.3333 54.4 46.2333 55.1 44.9 55.5C44.2333 55.7 43.3333 55.9 42.2 56.1C41.1333 56.2333 39.8333 56.3667 38.3 56.5C37.5 57.0333 36.6333 57.7667 35.7 58.7C34.8333 59.6333 33.9 60.7667 32.9 62.1C30.9 64.7 29.1 66 27.5 66C24.1 66 21.9333 65.3 21 63.9L16.1 56.1C16.5667 55.2333 17.0333 54.1333 17.5 52.8C18.0333 51.4667 18.6 49.9667 19.2 48.3C19.8 46.5667 20.4 45.1 21 43.9C21.6667 42.6333 22.2667 41.6667 22.8 41C23.9333 39.5333 24.9 37.3667 25.7 34.5C26.2333 32.5667 26.7333 31 27.2 29.8C27.7333 28.5333 28.4667 27.4333 29.4 26.5C30.3333 25.5667 31.7333 24.6 33.6 23.6C34.8 19.8667 34.8333 15.7333 33.7 11.2H36.1C39.6333 12.5333 41.7667 14.8667 42.5 18.2L43.1 18.1C43.6333 16.9 43.9 14.2667 43.9 10.2C43.9 9.73333 43.9 9.33333 43.9 8.99999C43.9 8.66666 43.8333 8.43333 43.7 8.3H47.2C49.2 9.36666 50.8 11 52 13.2C53.2 15.4 53.8 17.7667 53.8 20.3C57.9333 21.4333 61.8333 23.5333 65.5 26.6C69.2333 29.6667 72.4667 33.5667 75.2 38.3C78 43.0333 80.0333 48.4667 81.3 54.6C82.2333 59.2 82.9333 63.9667 83.4 68.9C83.8667 73.7667 84.1 78.8333 84.1 84.1V85H33.7ZM39.4 79.6H77.9V76.9C77.9 68.1 77.1 60.5 75.5 54.1C73.9667 47.6333 71.8667 42.2667 69.2 38C66.5333 33.6667 63.4667 30.2333 60 27.7C56.6 25.1667 53 23.3667 49.2 22.3C49.4 20.9667 49.5 19.8 49.5 18.8C49.5 16.0667 48.5 13.7 46.5 11.7L46.6 13.4C46.6 15.1333 46.4 16.8667 46 18.6C45.6 20.2667 45.0667 21.4667 44.4 22.2L39.8 22.3V21.3C39.8 19.7 39.6 18.4667 39.2 17.6C38.8667 16.7333 38.1667 15.8667 37.1 15C37.3667 16 37.5 17.2667 37.5 18.8C37.5 20.7333 37.3 22.4667 36.9 24C36.5 25.5333 36.0667 26.4667 35.6 26.8C35.4 26.9333 35.0667 27.1667 34.6 27.5C34.2 27.8333 33.7 28.2667 33.1 28.8C32.1 29.6667 31.3 30.7667 30.7 32.1C30.1667 33.4333 29.4667 35.4333 28.6 38.1C28.1333 39.5667 27.4333 40.8333 26.5 41.9C25.6333 42.8333 24.5667 45 23.3 48.4C22.6333 50.0667 22.0667 51.5 21.6 52.7C21.1333 53.9 20.7333 54.8 20.4 55.4L21.3 56.8C22.1 58.4667 22.7333 59.6667 23.2 60.4C23.6667 61.1333 24.2 61.6 24.8 61.8C25.4 61.9333 26.3 62 27.5 62C28.1667 62 28.8333 61.8333 29.5 61.5C30.1667 61.1 30.9333 60.2333 31.8 58.9C32.2 58.3 32.6667 57.7 33.2 57.1C33.7333 56.5 34.3333 55.8667 35 55.2C35.6667 54.5333 36.1333 54.0667 36.4 53.8C36.7333 53.5333 36.9333 53.3667 37 53.3C37.2 53.3 37.8 53.2 38.8 53C39.8667 52.8 41 52.5667 42.2 52.3C43.4 51.9667 44.3 51.7 44.9 51.5C45.8333 51.1667 46.6 50.6333 47.2 49.9C47.8 49.1 48.1333 48.4667 48.2 48H52.9L54.4 53.4C54.3333 54.6667 54.1 55.8667 53.7 57C53.3667 58.0667 52.8333 59 52.1 59.8L48 64.4C45.9333 66.6667 43.9667 69 42.1 71.4C40.3 73.8 39.4 76.4 39.4 79.2V79.6ZM68.7 78.3C68.9667 76.4333 69.1333 74.4 69.2 72.2C69.3333 70 69.4 67.6667 69.4 65.2C69.4 58.3333 68.9333 52.7667 68 48.5C67.0667 44.2333 65.6667 40.7 63.8 37.9C62 35.1 59.7 32.5333 56.9 30.2L57.8 29.6C60.9333 31.5333 64 34.6333 67 38.9C70 43.1667 72.1333 48.8333 73.4 55.9C74.0667 59.4333 74.5333 63.0667 74.8 66.8C75.1333 70.5333 75.3 74.3667 75.3 78.3H68.7ZM35.9 35.6C34.3667 35.6 33.3333 35.4 32.8 35L32.7 34.5V33.9C32.7 33.1667 33.0333 32.6 33.7 32.2C34.4333 31.8 35.3333 31.6 36.4 31.6C36.8 31.6 37.2 31.6333 37.6 31.7C38.0667 31.7667 38.5 31.8667 38.9 32L41.7 32.8V33.7L40.9 33.6C40.0333 33.6 39.2 33.9333 38.4 34.6C37.6 35.2667 36.7667 35.6 35.9 35.6ZM25.9 57.1C25.5 57.0333 25 56.8 24.4 56.4C23.8667 55.9333 23.4667 55.4333 23.2 54.9C23.9333 51.9 26.2 50.3 30 50.1L30.4 50.6C29.0667 51.5333 28.0333 52.6333 27.3 53.9C26.5667 55.1 26.1 56.1667 25.9 57.1Z" fill="black"/>
</g>
</g>
<defs>
<filter id="filter0_dd" x="12.1" y="8.3" width="76" height="84.7" filterUnits="userSpaceOnUse" color-interpolation-filters="sRGB">
<feFlood flood-opacity="0" result="BackgroundImageFix"/>
<feColorMatrix in="SourceAlpha" type="matrix" values="0 0 0 0 0 0 0 0 0 0 0 0 0 0 0 0 0 0 127 0"/>
<feOffset dy="4"/>
<feGaussianBlur stdDeviation="2"/>
<feColorMatrix type="matrix" values="0 0 0 0 0 0 0 0 0 0 0 0 0 0 0 0 0 0 0.25 0"/>
<feBlend mode="normal" in2="BackgroundImageFix" result="effect1_dropShadow"/>
<feColorMatrix in="SourceAlpha" type="matrix" values="0 0 0 0 0 0 0 0 0 0 0 0 0 0 0 0 0 0 127 0"/>
<feOffset dy="4"/>
<feGaussianBlur stdDeviation="2"/>
<feColorMatrix type="matrix" values="0 0 0 0 0 0 0 0 0 0 0 0 0 0 0 0 0 0 0.25 0"/>
<feBlend mode="normal" in2="effect1_dropShadow" result="effect2_dropShadow"/>
<feBlend mode="normal" in="SourceGraphic" in2="effect2_dropShadow" result="shape"/>
</filter>
<clipPath id="clip0">
<rect width="100" height="100" rx="25" fill="white"/>
</clipPath>
</defs>
</svg>
